#!OML:ASF F:\VICON\USERDATA\INSTALL\rory3\rory3.ASF
:FULLY-SPECIFIED
:DEGREES
761
root -2.10162 17.9625 7.80682 14.8429 -6.31715 -1.27587
lowerback -1.88106 1.41161 4.95726
upperback -4.99313 1.87852 -1.23134
thorax -3.91402 0.72402 -4.08086
lowerneck -10.8667 -6.50692 -10.5141
upperneck 19.9836 -8.57455 7.33296
head 8.80768 -4.14095 3.25752
rclavicle 1.06536e-014 -2.39536e-014
rhumerus -44.6683 19.1735 -89.3662
rradius 57.9941
rwrist 15.1596
rhand -25.3343 -47.5445
rfingers 7.12502
rthumb 1.18874 -77.5209
lclavicle 1.06536e-014 -2.39536e-014
lhumerus -52.4485 -7.38774 80.5586
lradius 69.2996
lwrist 0.271466
lhand -32.3606 -43.1046
lfingers 7.12502
lthumb -5.59689 -13.1985
rfemur -24.0308 8.66785 27.501
rtibia 29.6927
rfoot -2.31839 -9.75767
rtoes -17.6382
lfemur -72.1811 28.4692 -4.63399
ltibia 130.458
lfoot -16.3581 -8.86659
ltoes -3.46889
762
root -2.13273 18.1501 7.83139 14.6068 -6.4079 -1.05934
lowerback -1.81507 1.36215 4.79093
upperback -4.91659 1.81016 -1.32529
thorax -3.87913 0.696668 -4.08486
lowerneck -10.9829 -6.43523 -10.2636
upperneck 20.4395 -8.49801 7.14269
head 8.95664 -4.10251 3.16033
rclavicle 1.33558e-014 -1.98785e-015
rhumerus -44.6091 19.2885 -89.5067
rradius 57.6696
rwrist 15.0557
rhand -25.2226 -47.4405
rfingers 7.12502
rthumb 1.29654 -77.4163
lclavicle 1.33558e-014 -1.98785e-015
lhumerus -52.5405 -7.275 80.3564
lradius 69.304
lwrist 1.06324
lhand -32.2976 -42.5935
lfingers 7.12502
lthumb -5.53607 -12.6858
rfemur -23.0108 8.28785 27.1902
rtibia 28.0397
rfoot 0.272078 -8.08126
rtoes -21.8679
lfemur -72.2119 29.3874 -4.67018
ltibia 131.417
lfoot -16.4967 -9.14169
ltoes -3.41399
763
root -2.16017 18.3151 7.82795 14.8562 -5.94896 -1.01409
lowerback -1.76292 1.18096 4.96164
upperback -5.14213 1.57306 -1.40256
thorax -4.16626 0.556533 -4.26502
lowerneck -11.3086 -6.45756 -9.70899
upperneck 21.2835 -8.50199 6.4522
head 9.25129 -4.12296 2.82555
rclavicle -1.34304e-014 -8.34896e-015
rhumerus -44.8044 19.1867 -89.7017
rradius 57.4037
rwrist 14.9128
rhand -25.0662 -47.3668
rfingers 7.12502
rthumb 1.44764 -77.3417
lclavicle -1.34304e-014 -8.34896e-015
lhumerus -52.8438 -7.31677 80.1461
lradius 69.4194
lwrist 1.86074
lhand -32.445 -41.8776
lfingers 7.12502
lthumb -5.67834 -11.9737
rfemur -22.666 7.34813 27.1811
rtibia 26.5069
rfoot 3.64169 -6.06482
rtoes -24.2122
lfemur -73.571 29.8448 -4.86083
ltibia 132.695
lfoot -16.4185 -9.26582
ltoes -4.45828
764
root -2.18175 18.4806 7.82122 14.6221 -5.98694 -0.914718
lowerback -1.2388 1.13532 5.03414
upperback -5.07167 1.53512 -1.50763
thorax -4.39031 0.527026 -4.42724
lowerneck -11.893 -6.49771 -9.18867
upperneck 21.9421 -8.4966 5.80504
head 9.53568 -4.13195 2.5022
rclavicle -9.52924e-015 5.96354e-015
rhumerus -44.5753 19.0529 -89.7121
rradius 57.049
rwrist 14.3877
rhand -24.9657 -46.5645
rfingers 7.12502
rthumb 1.54473 -76.5387
lclavicle -9.52924e-015 5.96354e-015
lhumerus -52.7783 -7.29869 79.9327
lradius 69.4821
lwrist 2.64041
lhand -32.7101 -41.5883
lfingers 7.12502
lthumb -5.93428 -11.6914
rfemur -22.0625 6.78872 26.9885
rtibia 25.1468
rfoot 7.07467 -3.98367
rtoes -26.2851
lfemur -73.985 30.9591 -4.8948
ltibia 133.893
lfoot -16.449 -9.39649
ltoes -6.00463
765
root -2.21525 18.6462 7.84872 14.5037 -6.16183 -1.03285
lowerback -1.32626 1.14704 5.11072
upperback -4.93666 1.54681 -1.45005
thorax -4.19737 0.53996 -4.40576
lowerneck -12.2977 -6.4947 -8.92898
upperneck 22.4722 -8.43595 5.37388
head 9.76182 -4.11929 2.30672
rclavicle 3.52097e-014 -1.98785e-016
rhumerus -44.3565 19.0544 -89.6732
rradius 56.6732
rwrist 13.5401
rhand -25.5217 -45.7434
rfingers 7.12502
rthumb 1.00773 -75.7207
lclavicle 3.52097e-014 -1.98785e-016
lhumerus -52.6546 -7.19476 79.807
lradius 69.1997
lwrist 3.29783
lhand -32.7931 -41.7496
lfingers 7.12502
lthumb -6.01444 -11.855
rfemur -21.5556 6.60894 26.9431
rtibia 23.8574
rfoot 10.3496 -2.14662
rtoes -29.1363
lfemur -73.8015 32.8673 -4.39234
ltibia 134.919
lfoot -17.2456 -9.84343
ltoes -6.69588
766
root -2.24933 18.8067 7.8224 14.1034 -6.49048 -0.532741
lowerback -0.367729 1.08615 4.41907
upperback -4.98302 1.49627 -1.53751
thorax -4.8053 0.521934 -4.1308
lowerneck -12.3336 -6.39601 -8.67063
upperneck 22.7775 -8.28277 5.03236
head 9.83674 -4.06296 2.16533
rclavicle 2.12575e-014 7.95139e-016
rhumerus -44.341 18.9122 -89.6779
rradius 56.3618
rwrist 13.0059
rhand -25.4949 -45.7752
rfingers 7.12502
rthumb 1.03356 -75.7525
lclavicle 2.12575e-014 7.95139e-016
lhumerus -52.5599 -7.17441 79.6812
lradius 68.6935
lwrist 3.6337
lhand -32.8842 -41.7039
lfingers 7.12502
lthumb -6.10242 -11.8117
rfemur -21.0986 7.05922 26.1066
rtibia 22.6001
rfoot 13.7593 -1.41667
rtoes -29.5104
lfemur -73.9582 34.1613 -4.90217
ltibia 135.872
lfoot -17.4739 -9.86029
ltoes -6.77503
767
root -2.26668 18.9589 7.82152 14.1795 -6.42921 -0.89949
lowerback -0.341577 1.01682 5.03685
upperback -4.92406 1.42056 -1.4916
thorax -4.75865 0.461721 -4.42878
lowerneck -12.4685 -6.28165 -8.32483
upperneck 22.8693 -8.12184 4.74994
head 9.8531 -3.98718 2.02857
rclavicle -4.98204e-015 -2.92213e-014
rhumerus -44.0796 18.5858 -89.6009
rradius 56.071
rwrist 12.8098
rhand -24.9068 -45.6355
rfingers 7.12502
rthumb 1.60159 -75.6092
lclavicle -4.98204e-015 -2.92213e-014
lhumerus -52.2473 -7.11775 79.4393
lradius 68.2258
lwrist 3.658
lhand -32.961 -41.0153
lfingers 7.12502
lthumb -6.17654 -11.1253
rfemur -20.8776 6.97825 26.1841
rtibia 21.401
rfoot 16.3899 -1.10198
rtoes -27.3198
lfemur -74.461 35.7426 -4.56047
ltibia 136.964
lfoot -17.7147 -9.97058
ltoes -6.4389
